<svg height="484" width="2500" xmlns="http://www.w3.org/2000/svg" viewBox="0 0 327.49922875493826 63.234"><path d="M0 .001v45.71h7.136V4.382h6.605s4.799 0 6.442 2.146c1.396 1.823 1.651 5.13 1.651 7.363 0 2.39-.151 6.083-.953 7.435-1.217 2.066-3.215 2.48-5.042 2.48h-4.36v4.057h6.27s5.657.236 8.09-2.237c2.983-3.032 3.741-7.108 3.741-12.565 0-4.958-1.799-9.96-5.476-11.659-3.044-1.4-8.532-1.4-8.532-1.4zM35.188 45.712h7.135V.002h-7.135zM80.285 10.663L93.34 44.878l-7.495 18.356h5.923l21.583-52.571h-6.613l-9.402 25.623-8.747-25.623zM118.724 45.44v-4.32s7.546.296 9.118.296c3.482 0 5.221-.742 6.53-2.146.773-.842 1.471-4.571 1.471-5.9 0-1.324-.255-4.187-.773-5.36-.535-1.149-1.751-2.222-3.574-2.377-1.3-.112-3.31-.375-5.66-.483-3.295-.156-5.473-1.875-6.522-3.111-1.04-1.237-2.433-3.1-2.433-8.8 0-5.707 1.476-8.906 2.956-10.39 1.48-1.492 3.645-2.146 5.309-2.441 1.914-.327 5.041-.347 5.041-.347l9.988.291v4.32s-7.283-.291-8.85-.291c-3.483 0-4.528.746-5.832 2.146-.77.833-1.372 3.139-1.372 4.46 0 1.327.155 4.008.678 5.168.518 1.15 1.739 2.226 3.566 2.39 1.296.1 3.31.363 5.656.47 3.31.156 5.484 1.871 6.521 3.112 1.05 1.24 2.445 3.853 2.445 9.548 0 5.708-1.488 9.785-2.96 11.273-1.483 1.483-3.645 2.146-5.308 2.433-1.919.33-5.046.355-5.046.355zM157.658 4.38h-7.132v33.558s.171 3.063.347 4.14c.175 1.077 1.743 3.634 5.831 3.634l7.391-.144v-4.304s-2.002.144-3.21.144c-1.225 0-2.709-.08-2.96-2.15-.268-2.066-.268-4.535-.268-4.535v-19.76h8.058v-4.3h-8.058V4.381M226.519 45.712h7.132V10.665h-7.132zM226.519 6.363h7.132V0h-7.132zM256.195 10.364c4.854 0 8.62 1.085 10.642 2.72 2.042 1.64 4.55 5.098 4.55 15.105 0 10.008-2.508 13.462-4.55 15.106-2.023 1.635-5.788 2.728-10.642 2.728-4.867 0-8.616-1.093-10.654-2.728-2.038-1.644-4.535-5.098-4.535-15.106 0-10.007 2.497-13.466 4.535-15.105 2.038-1.635 5.787-2.72 10.654-2.72zm-4.89 6.72c-.982 1.21-2.178 3.75-2.178 11.105 0 7.352 1.196 9.896 2.177 11.1.978 1.198 2.78 2.007 5.114 2.007 2.337 0 4.132-.81 5.122-2.006.977-1.205 2.173-3.75 2.173-11.1 0-7.356-1.196-9.897-2.173-11.105-.99-1.2-2.785-2.003-5.122-2.003-2.333 0-4.136.802-5.114 2.003M286.166 15.585l6.996-.295c1.83 0 3.985.494 5.03 1.819.973 1.248 1.587 2.736 1.587 5.133v23.43h7.144v-24.02c0-4.543-1.4-7.184-3.498-8.843-2.992-2.373-8.352-2.146-8.352-2.146l-15.983.287v34.722h7.076zM212.31 4.38h-7.135v33.558s.168 3.063.34 4.14c.179 1.077 1.734 3.634 5.839 3.634l7.39-.144v-4.304s-2.006.144-3.218.144-2.7-.08-2.96-2.15c-.255-2.066-.255-4.535-.255-4.535v-19.76h8.037v-4.3h-8.037zM69.4 22.242c0-2.397-.61-3.885-1.592-5.133-1.045-1.325-3.19-1.82-5.026-1.82l-9.41.296V10.95l11.325-.287s5.36-.228 8.356 2.146c2.09 1.66 3.478 4.3 3.478 8.843v23.685l-13.673.295s-6.19.022-9.31-1.24c-3.039-1.237-4.698-4.631-4.698-9.342 0-4.547 1.392-7.188 3.482-8.847 2.995-2.377 8.352-2.142 8.352-2.142h4.368v4.037h-2.45c-1.834 0-3.72.339-4.77 1.663-.977 1.236-1.5 2.31-1.5 4.707 0 3.147.61 4.55 2.09 5.62 1.309.953 3.65 1.16 6.263 1.16l4.715-.287zM189.71 22.242c0-2.397-.597-3.885-1.579-5.133-1.057-1.325-3.203-1.82-5.025-1.82l-9.406.296V10.95l11.316-.287s5.357-.228 8.349 2.146c2.09 1.66 3.486 4.3 3.486 8.843v23.685l-13.674.295s-6.198.022-9.31-1.24c-3.043-1.237-4.706-4.631-4.706-9.342 0-4.547 1.404-7.188 3.482-8.847 2.992-2.377 8.36-2.142 8.36-2.142h4.364v4.037h-2.453c-1.823 0-3.721.339-4.758 1.663-.982 1.236-1.508 2.31-1.508 4.707 0 3.147.614 4.55 2.09 5.62 1.304.953 3.658 1.16 6.27 1.16l4.703-.287zM319.854 45.999a6.953 6.953 0 0 0 6.969-6.964 6.94 6.94 0 0 0-2.039-4.93 6.936 6.936 0 0 0-4.93-2.035c-3.825 0-6.964 3.124-6.964 6.965 0 1.858.718 3.61 2.046 4.93a6.946 6.946 0 0 0 4.918 2.034zm-5.795-6.964c0-1.548.61-3.004 1.699-4.097a5.778 5.778 0 0 1 4.096-1.703c1.548 0 3.008.61 4.1 1.703a5.777 5.777 0 0 1 1.7 4.097c0 3.195-2.597 5.8-5.8 5.8a5.79 5.79 0 0 1-4.096-1.7 5.786 5.786 0 0 1-1.7-4.1"/><path d="M323.293 42.27c-.104-.04-.184-.16-.228-.34a2.87 2.87 0 0 1-.067-.586l-.032-1.001c-.016-.47-.116-.806-.284-1.03-.107-.15-.27-.27-.458-.382.231-.152.438-.335.586-.566.196-.312.299-.706.299-1.185 0-.917-.387-1.564-1.14-1.903-.4-.18-.882-.26-1.473-.26h-3.601v7.755h1.34v-3.18h2.118c.383 0 .67.04.833.113.275.135.423.41.44.83l.059 1.24c.016.303.032.494.056.606.036.12.055.215.1.295l.055.096h1.496v-.455l-.1-.048zm-1.552-4.994c0 .434-.112.722-.327.881-.247.164-.59.255-1.021.255h-2.158V36.22h2.29c.306 0 .562.043.745.131.32.16.471.47.471.925"/></svg>