<svg xmlns="http://www.w3.org/2000/svg" width="2500" height="2500" viewBox="0 0 192.756 192.756"><g fill-rule="evenodd" clip-rule="evenodd"><path fill="#fff" d="M0 0h192.756v192.756H0V0z"/><path stroke="#000" stroke-width=".216" stroke-miterlimit="2.613" d="M2.834 10.716h187.088v171.323H2.834V10.716z"/><path d="M102.891 46.935l-.1 90.596-24.273-7.895V23.151l30.984 8.191c19.834 5.329 31.971 15.691 31.773 33.85-.197 21.12-9.967 29.607-29.012 24.081V47.626c.001-5.033-9.372-5.329-9.372-.691z" fill="#bbbcbf"/><path d="M67.368 112.07l-11.446 3.848c-7.4 2.566-13.715-3.453-6.907-5.922l5.525-1.973-20.82-6.613c-6.414 2.172-12.433 6.811-12.039 13.324.395 6.611 15.492 8.191 27.136 10.066 10.854 1.775 20.721.789 29.701-2.369v-6.809l-11.15-3.552zm35.62 25.461l21.215-7.402-21.412-6.809v13.717l.197.494z" fill="#e6e6e7"/><path d="M159.432 117.695l.395-.1c9.275-3.256 13.223-7.797 12.234-12.039-1.578-7.105-12.926-10.955-30.391-12.238-12.531-.888-24.867 1.875-36.904 6.019l-1.975.691 21.611 6.711 12.629-4.244c13.223-2.467 18.551 1.875 5.822 5.922l-6.314 2.172 22.893 7.106zM78.518 86.312l-9.571 3.257 9.571 2.961v-6.218z" fill="#808183"/><path d="M124.203 130.129l35.229-12.434-22.893-7.105-33.748 11.545v1.186l21.412 6.808zM78.518 108.32l-11.15 3.75 11.15 3.553v-7.303zm24.273 5.823V100.03l21.611 6.711-21.611 7.402zm-48.251-6.12l23.978-8.586V92.53l-9.571-2.961-34.733 11.744c-.099 0-.296.098-.494.098l20.82 6.612z" fill="#a6a8aa"/><path d="M31.352 165.658v-19.047h7.302c4.243 0 5.032 2.072 4.934 5.625-.099 4.441-1.48 6.02-4.243 6.02h-3.059v-1.875h2.763c.986 0 1.48-1.975 1.48-3.947 0-2.27-1.184-3.75-2.368-3.75h-3.947v16.975h-2.862v-.001zm14.702-19.047h2.96v19.047h-2.96v-19.047zm81.307 4.243h2.961v14.805h-2.961v-14.805zm0-4.44h2.961v2.762h-2.961v-2.762zm-73.61 6.414v-1.975h5.427c2.665 0 4.342 1.383 4.342 3.752v11.053h-7.203c-2.368 0-4.44-1.58-4.44-4.738 0-2.959 2.072-4.441 3.947-4.441h2.763v1.58h-1.974c-.987.1-1.48.986-1.579 2.764-.099 2.072 1.085 2.961 2.861 2.961h2.665v-8.686c0-1.283-.987-2.27-2.27-2.27h-4.539zm51.409 0v-1.975h5.428c2.664 0 4.34 1.383 4.34 3.752v11.053h-7.203c-2.367 0-4.439-1.58-4.439-4.738 0-2.959 2.072-4.441 3.947-4.441h2.762v1.58h-1.973c-.986.1-1.48.986-1.578 2.764-.1 2.072 1.084 2.961 2.861 2.961h2.664v-8.686c0-1.283-.986-2.27-2.27-2.27h-4.539zm-39.864-1.974h3.552l3.75 10.264 4.045-10.264h2.763l-9.275 21.811h-2.467l3.158-7.4-5.526-14.411zm25.655-2.27v-1.875h-5.427c-3.059.1-4.539 1.678-4.539 4.738-.197 3.947 1.283 5.822 4.342 5.822h1.579c2.269 0 2.17 2.072 2.17 3.059.099 1.184-.691 3.652-2.072 3.652h-5.23v1.678h6.019c2.862 0 4.342-1.875 4.243-5.725.099-3.455-.987-5.328-3.849-5.328h-1.875c-1.776 0-2.27-2.074-2.27-3.061-.099-.986.493-2.961 2.072-2.961h4.837v.001zm4.342-.197v15.199c0 .986 1.084 2.072 2.072 2.072h3.354v-1.777h-1.381c-.789 0-1.184-.789-1.184-1.381v-9.672h3.355v-1.975h-3.158v-2.467h-3.058v.001zm23.09 0v15.199c0 .986 1.184 2.072 2.17 2.072h3.355v-1.777h-1.381c-.789 0-1.283-.789-1.283-1.381v-9.672h3.453v-1.975h-3.158v-2.467h-3.156v.001zm21.609 2.369c5.525 0 6.611 3.355 6.611 7.5s-.494 7.5-6.611 7.5c-6.02 0-6.512-3.355-6.512-7.5s1.084-7.5 6.512-7.5zm.197 2.072c-2.664 0-3.256 2.467-3.256 5.428 0 3.059.295 5.527 3.256 5.527 2.861 0 3.158-2.469 3.158-5.527.001-2.961-.591-5.428-3.158-5.428zm9.77 12.83h2.861l.098-12.533h3.355c1.48 0 2.369.689 2.369 2.367v10.166h3.059V155c0-2.764-1.777-4.146-5.033-4.146h-6.709v14.804zm23.484-.099v-4.047l-1.48 4.047h-.592l-1.383-4.047v4.047h-.689v-4.836h1.086l1.281 4.145 1.283-4.145h1.086v4.836h-.592zm-6.908 0v-4.342h-1.48v-.494h3.652v.494h-1.48v4.342h-.692z" fill="#fff"/></g></svg>