<svg xmlns="http://www.w3.org/2000/svg" width="2500" height="521" viewBox="-0.001 0 502.922 104.795"><path d="M502.301 24.062H180.797v65.083h322.125V24.062h-.621zm-13.198 57.155h5.627v.832h-2.322v6.418h-.979v-6.418h-2.324l-.002-.832z" fill="none"/><path d="M491.427 88.467h.981v-6.418h2.322v-.832h-5.627v.832h2.324z"/><path d="M502.301 24.062H180.797v65.083h322.125V24.062h-.621zm-6.668 57.155h1.352l2.102 6.191 2.033-6.191h1.183v7.25h-.812v-5.891l-1.953 5.891h-.971l-1.953-5.891v5.891h-.979l-.002-7.25z" fill="none"/><path d="M496.613 82.577l1.953 5.89h.971l1.953-5.89v5.89h.811v-7.25h-1.182l-2.033 6.192-2.102-6.192h-1.351v7.25h.98zM335.361 71.101V41.126c0-6.115 2.854-10.494 8.941-10.494h37.547c.229 0 .451-.228.451-.454v-5.964a.426.426 0 0 0-.035-.152h-45.909c-9.951 1.265-14.812 8.2-14.812 17.064V71.1c0 6.115-2.934 10.494-8.939 10.494h-39.652c-.225 0-.451.152-.451.453v5.965c0 .248.152.438.33.5h45.02c11.732-.308 17.509-7.799 17.509-17.411zM181.104 88.512h13.183a.52.52 0 0 0 .33-.498V68.911c0-6.115 3.454-10.344 8.486-10.344h54.301c12.242 0 18.176-7.55 18.176-17.441 0-8.864-4.856-15.799-14.812-17.064H180.86c-.023.05-.062.089-.062.152v5.964c0 .302.15.454.45.454h71.574c6.084 0 8.938 4.379 8.938 10.494 0 6.116-2.854 10.495-8.938 10.495h-56.628c-8.787 0-15.396 7.476-15.396 17.29v19.104c-.001.245.105.435.306.497z"/><g><path d="M393.714 74.649h60.466c.221 0 .451-.227.451-.453V36.974c0-.83-.752-.906-1.131-.604l-60.156 37.222c-.382.228-.531.453-.451.756.069.151.3.301.821.301z" fill="none"/><path d="M382.08 81.596h72.101c.221 0 .371.15.371.302v6.116c0 .302.229.453.45.453h12.996c.23 0 .449-.151.449-.453v-5.965c0-.227.23-.453.451-.453h12.916c.301 0 .451-.227.451-.452v-6.041c0-.228-.15-.453-.451-.453h-12.916c-.221 0-.451-.228-.451-.452V30.632c0-3.555-1.32-5.819-3.542-6.57h-3.76c-1.172.301-2.446.84-3.812 1.661l-77.656 47.945c-3.005 1.887-4.058 4-3.306 5.586.601 1.36 2.324 2.342 5.709 2.342zm11.264-8.004L453.5 36.37c.38-.302 1.132-.226 1.132.604v37.224c0 .227-.23.452-.451.452h-60.465c-.521 0-.753-.149-.822-.302-.082-.303.068-.529.45-.756z"/></g><g><path d="M50.372 0c5.858 1.092 11.616 2.652 17.347 4.278 3.277.952 6.547 1.937 9.795 2.986 5.102 1.625 10.182 3.465 14.803 6.209 2.07 1.257 4.058 2.677 5.757 4.409a21.957 21.957 0 0 1 4.454 6.255c2.015 4.208 2.705 8.909 2.909 13.531.096 3.016.09 6.058-.474 9.035-.468 2.587-1.3 5.138-2.684 7.385-1.222 1.984-2.921 3.701-4.983 4.807-1.978 1.066-4.242 1.574-6.485 1.529-3.402.035-6.703-1.049-9.756-2.471-.056-10.153-.009-20.308-.024-30.459-.021-1.837.104-3.693-.267-5.505-.261-1.404-.833-2.819-1.936-3.772-.73-.659-1.678-1.031-2.63-1.232-.963-.183-1.99.226-2.586.999-.991 1.238-1.251 2.882-1.296 4.423-.008 27.181.01 54.363-.008 81.542a29319.95 29319.95 0 0 1-21.936-6.961c-.007-32.329-.004-64.658 0-96.988zM17.506 68.784C27.039 65.409 36.562 62 46.099 58.637c.015 3.742 0 7.486.006 11.232-.006.508.026 1.018-.037 1.523-7.538 2.672-15.062 5.391-22.592 8.08-1.044.395-2.115.841-2.92 1.638-.375.374-.681.927-.476 1.462.258.631.902.975 1.496 1.234 1.652.672 3.458.768 5.218.848 1.962-.031 3.933-.178 5.854-.602 1.299-.256 2.549-.693 3.787-1.158 3.218-1.165 6.436-2.337 9.659-3.49.023 3.166.004 6.334.01 9.504-.01.633.029 1.27-.034 1.9-3.958.711-7.963 1.193-11.986 1.257-8.101.183-16.221-1.071-23.916-3.603-2.523-.731-5.031-1.705-7.139-3.307-1.16-.898-2.198-2.027-2.726-3.416-.442-1.177-.41-2.535.141-3.67.531-1.133 1.459-2.027 2.481-2.723 2.364-1.633 4.973-2.879 7.615-3.989 2.279-.97 4.641-1.726 6.966-2.573z"/><path d="M94.209 64.52c2.162-.25 4.338-.309 6.512-.387 7.15.027 14.338.916 21.178 3.062 1.342.408 2.642.937 3.979 1.362 2.384.871 4.77 1.927 6.678 3.641 1.146 1.045 2.135 2.454 2.148 4.062.068 1.31-.524 2.566-1.374 3.531-1.616 1.812-3.752 3.058-5.896 4.144-2.283 1.164-4.737 1.915-7.131 2.801-14.612 5.247-29.226 10.492-43.835 15.745-.003-4.094.004-8.186-.003-12.275.022-.164-.067-.449.163-.492 11.118-3.955 22.233-7.922 33.35-11.889 1.503-.562 3.122-.969 4.397-1.988.522-.41 1.033-1.062.777-1.766-.267-.615-.905-.955-1.492-1.21-1.664-.659-3.476-.786-5.246-.836-2.771.019-5.566.36-8.202 1.249-7.919 2.775-15.823 5.584-23.744 8.35.001-4.395-.003-8.787.002-13.181 5.729-2.011 11.713-3.23 17.739-3.923zM126.692 94.795c1.729-.215 3.535.56 4.571 1.961 1.131 1.447 1.338 3.533.539 5.185-.807 1.714-2.65 2.915-4.56 2.853-1.757.039-3.459-.984-4.324-2.5-.781-1.334-.875-3.043-.27-4.463.681-1.64 2.283-2.836 4.044-3.036zm-.376.924a4.149 4.149 0 0 0-2.425 1.613 4.175 4.175 0 0 0-.694 3.354 4.164 4.164 0 0 0 1.808 2.61c1.403.922 3.37.871 4.713-.141 1.385-.979 2.043-2.857 1.566-4.484-.294-1.1-1.08-2.037-2.07-2.582-.88-.465-1.93-.6-2.898-.37z"/><path d="M125.118 96.896c.901-.005 1.805-.001 2.707-.003.51.007 1.072.126 1.434.518.363.41.393 1.008.293 1.522-.057.34-.356.541-.573.778.188.168.43.324.475.597.104.521-.006 1.067.161 1.577.105.181.212.363.22.578-.374.011-.747.004-1.121.01-.252-.594-.063-1.26-.221-1.871-.062-.249-.32-.404-.565-.396-.61-.025-1.223-.008-1.83-.008-.01.758.021 1.518-.019 2.275a23.39 23.39 0 0 0-.955.001c-.017-1.862-.006-3.72-.006-5.578zm.978.884v1.541c.545.004 1.091.008 1.638.002.271-.002.586-.053.762-.283a.973.973 0 0 0 .015-.98c-.141-.234-.438-.258-.682-.273-.578-.018-1.156-.007-1.733-.007z"/></g></svg>