<svg version="1.2" baseProfile="tiny-ps" xmlns="http://www.w3.org/2000/svg" viewBox="0 0 40 32" width="40" height="32">
	<title>Layer</title>
	<style>
		tspan { white-space:pre }
		.shp0 { fill: #ffffff } 
	</style>
	<path id="Layer" class="shp0" d="M0.79 23.07C1.89 22.27 3.09 21.68 4.29 21.28L13.9 17.99L13.89 21.69L6.99 24.08C5.79 24.58 5.59 25.18 6.59 25.48C7.89 25.78 9.19 25.68 10.49 25.29L13.89 24.19L13.88 27.59C13.78 27.59 13.58 27.69 13.38 27.69C9.88 28.29 6.28 27.98 2.98 26.88C-0.21 25.97 -0.71 24.07 0.79 23.07L0.79 23.07ZM22.81 5.6C22.02 5.3 22.01 6.1 22.01 7.2L21.98 31.5L14.98 29.39L15.02 0.49C18.02 1.1 21.02 2 23.92 3.01C29.42 4.91 31.31 7.32 31.3 12.62C31.3 17.82 28.09 19.81 24 17.81L24.01 8.11C24.01 7.01 23.91 5.91 22.81 5.6ZM36.99 20.82C40.09 21.83 40.39 23.23 39.69 24.23C38.89 25.03 37.99 25.53 36.99 25.92L23.18 31L23.18 27.2L33.19 23.52C34.39 23.02 34.59 22.42 33.59 22.12C32.29 21.82 30.99 21.92 29.69 22.31L23.19 24.7L23.19 20.8L23.49 20.7C24.89 20.21 26.39 19.81 27.99 19.71C31 19.42 34.09 19.82 36.99 20.82L36.99 20.82Z" />
</svg>