<svg height="1899" viewBox="-53.207 8.667 718.947 541.86" width="2500" xmlns="http://www.w3.org/2000/svg"><g clip-rule="evenodd" fill-rule="evenodd"><path d="m333.383 121.345-.468 429.182-114.99-37.398v-504.462l146.778 38.806c93.954 25.251 151.45 74.336 150.515 160.36-.934 100.054-47.211 140.256-137.428 114.075v-197.297c0-23.844-44.407-25.24-44.407-3.266z" fill="#de0029"/><path d="m165.1 429.9-54.225 18.237c-35.063 12.158-64.976-16.36-32.722-28.054l26.175-9.344-98.633-31.33c-30.386 10.29-58.902 32.263-57.027 63.12 1.87 31.321 73.387 38.806 128.55 47.689 51.417 8.411 98.162 3.737 140.705-11.224v-32.262zm168.75 120.626 100.502-35.068-101.436-32.254v64.98z" fill="#f3c202"/><path d="m601.232 456.557 1.868-.47c43.941-15.424 62.64-36.938 57.968-57.035-7.48-33.66-61.237-51.897-143.978-57.976-59.365-4.205-117.795 8.882-174.824 28.516l-9.35 3.276 102.372 31.792 59.833-20.107c62.639-11.685 87.886 8.884 27.582 28.054l-29.919 10.28zm-383.307-148.67-45.348 15.423 45.348 14.027z" fill="#326db3"/><path d="m434.351 515.46 166.88-58.903-108.45-33.67-159.866 54.7v5.618zm-216.426-103.326-52.823 17.766 52.823 16.83zm114.99 27.592v-66.859l102.372 31.792zm-228.586-28.986 113.594-40.675v-32.727l-45.346-14.027-164.544 55.635c-.468 0-1.402.462-2.336.462z" fill="#00aa9e"/></g></svg>