<svg version="1.2" xmlns="http://www.w3.org/2000/svg" viewBox="0 0 407 99" width="407" height="99">
	<title>Neues Projekt</title>
	<defs>
		<linearGradient id="g1" x1="1.2" y1="50" x2="406.8" y2="50" gradientUnits="userSpaceOnUse">
			<stop offset="0" stop-color="#ed4264"/>
			<stop offset="1" stop-color="#ffedbc"/>
		</linearGradient>
		<linearGradient id="g2" x1="1.2" y1="50" x2="406.8" y2="50" gradientUnits="userSpaceOnUse">
			<stop offset="0" stop-color="#ed4264"/>
			<stop offset="1" stop-color="#ffedbc"/>
		</linearGradient>
		<linearGradient id="g3" x1="1.2" y1="50" x2="406.8" y2="50" gradientUnits="userSpaceOnUse">
			<stop offset="0" stop-color="#ed4264"/>
			<stop offset="1" stop-color="#ffedbc"/>
		</linearGradient>
		<linearGradient id="g4" x1="1.2" y1="50" x2="406.8" y2="50" gradientUnits="userSpaceOnUse">
			<stop offset="0" stop-color="#ed4264"/>
			<stop offset="1" stop-color="#ffedbc"/>
		</linearGradient>
		<linearGradient id="g5" x1="1.2" y1="50" x2="406.8" y2="50" gradientUnits="userSpaceOnUse">
			<stop offset="0" stop-color="#ed4264"/>
			<stop offset="1" stop-color="#ffedbc"/>
		</linearGradient>
		<linearGradient id="g6" x1="1.2" y1="50" x2="406.8" y2="50" gradientUnits="userSpaceOnUse">
			<stop offset="0" stop-color="#ed4264"/>
			<stop offset="1" stop-color="#ffedbc"/>
		</linearGradient>
		<linearGradient id="g7" x1="1.2" y1="50" x2="406.8" y2="50" gradientUnits="userSpaceOnUse">
			<stop offset="0" stop-color="#ed4264"/>
			<stop offset="1" stop-color="#ffedbc"/>
		</linearGradient>
		<linearGradient id="g8" x1="1.2" y1="50" x2="406.8" y2="50" gradientUnits="userSpaceOnUse">
			<stop offset="0" stop-color="#ed4264"/>
			<stop offset="1" stop-color="#ffedbc"/>
		</linearGradient>
		<linearGradient id="g9" x1="1.2" y1="50" x2="406.8" y2="50" gradientUnits="userSpaceOnUse">
			<stop offset="0" stop-color="#ed4264"/>
			<stop offset="1" stop-color="#ffedbc"/>
		</linearGradient>
		<linearGradient id="g10" x1="1.2" y1="50" x2="406.8" y2="50" gradientUnits="userSpaceOnUse">
			<stop offset="0" stop-color="#ed4264"/>
			<stop offset="1" stop-color="#ffedbc"/>
		</linearGradient>
		<linearGradient id="g11" x1="1.2" y1="50" x2="406.8" y2="50" gradientUnits="userSpaceOnUse">
			<stop offset="0" stop-color="#ed4264"/>
			<stop offset="1" stop-color="#ffedbc"/>
		</linearGradient>
		<linearGradient id="g12" x1="1.2" y1="50" x2="406.8" y2="50" gradientUnits="userSpaceOnUse">
			<stop offset="0" stop-color="#ed4264"/>
			<stop offset="1" stop-color="#ffedbc"/>
		</linearGradient>
		<linearGradient id="g13" x1="1.2" y1="50" x2="406.8" y2="50" gradientUnits="userSpaceOnUse">
			<stop offset="0" stop-color="#ed4264"/>
			<stop offset="1" stop-color="#ffedbc"/>
		</linearGradient>
		<linearGradient id="g14" x1="1.2" y1="50" x2="406.8" y2="50" gradientUnits="userSpaceOnUse">
			<stop offset="0" stop-color="#ed4264"/>
			<stop offset="1" stop-color="#ffedbc"/>
		</linearGradient>
		<linearGradient id="g15" x1="1.2" y1="50" x2="406.8" y2="50" gradientUnits="userSpaceOnUse">
			<stop offset="0" stop-color="#ed4264"/>
			<stop offset="1" stop-color="#ffedbc"/>
		</linearGradient>
		<linearGradient id="g16" x1="1.2" y1="50" x2="406.8" y2="50" gradientUnits="userSpaceOnUse">
			<stop offset="0" stop-color="#ed4264"/>
			<stop offset="1" stop-color="#ffedbc"/>
		</linearGradient>
		<linearGradient id="g17" x1="1.2" y1="50" x2="406.8" y2="50" gradientUnits="userSpaceOnUse">
			<stop offset="0" stop-color="#ed4264"/>
			<stop offset="1" stop-color="#ffedbc"/>
		</linearGradient>
		<linearGradient id="g18" x1="1.2" y1="50" x2="406.8" y2="50" gradientUnits="userSpaceOnUse">
			<stop offset="0" stop-color="#ed4264"/>
			<stop offset="1" stop-color="#ffedbc"/>
		</linearGradient>
	</defs>
	<style>
		.s0 { fill: url(#g1) } 
		.s1 { fill: url(#g2) } 
		.s2 { fill: url(#g3) } 
		.s3 { fill: url(#g4) } 
		.s4 { fill: url(#g5) } 
		.s5 { fill: url(#g6) } 
		.s6 { fill: url(#g7) } 
		.s7 { fill: url(#g8) } 
		.s8 { fill: url(#g9) } 
		.s9 { fill: url(#g10) } 
		.s10 { fill: url(#g11) } 
		.s11 { fill: url(#g12) } 
		.s12 { fill: url(#g13) } 
		.s13 { fill: url(#g14) } 
		.s14 { fill: url(#g15) } 
		.s15 { fill: url(#g16) } 
		.s16 { fill: url(#g17) } 
		.s17 { fill: url(#g18) } 
	</style>
	<g id="Layer">
		<g id="Layer">
			<g id="Layer">
				<path id="Layer" fill-rule="evenodd" class="s0" d="m30.7 36.7h-6.1l-6.7-9.9h-11.6v9.9h-5.1v-34.9h16.9c3.4 0 6.5 1.3 8.9 3.6 2.3 2.4 3.6 5.5 3.6 8.9 0 2.4-0.7 4.8-2 6.9-1.3 2-3.2 3.5-5.3 4.5zm-24.4-15h11.8q1.2 0 2.3-0.3c3.1-1 5.2-3.9 5.2-7.1 0-4.2-3.3-7.5-7.5-7.5h-11.8z"/>
				<path id="Layer" class="s1" d="m39 6.8v9.9h16.7v5.1h-16.7v9.9h24.4v5h-29.5v-34.9h29.5v5z"/>
				<path id="Layer" class="s2" d="m101.3 1.8v34.9h-5.1v-27.3l-12.3 18.3-1.3-1.9-0.4-0.7-1.3-1.9-9.3-13.8v27.3h-5v-34.9h6l11.3 16.8 2.6-3.9 8.7-12.9z"/>
				<path id="Layer" fill-rule="evenodd" class="s3" d="m139.5 19.3c0 2.3-0.5 4.6-1.4 6.8q-1.3 3.1-3.7 5.5-2.5 2.4-5.6 3.8c-2.1 0.9-4.4 1.3-6.8 1.3q-3.6 0-6.8-1.3c-2.1-0.9-4-2.2-5.6-3.8-1.6-1.6-2.8-3.5-3.7-5.5-0.9-2.2-1.4-4.5-1.4-6.8 0-2.4 0.5-4.7 1.4-6.9 0.9-2 2.1-3.9 3.7-5.5 1.6-1.6 3.5-2.9 5.6-3.8 2.2-0.9 4.4-1.3 6.8-1.3 2.4 0 4.7 0.4 6.8 1.3q3.1 1.4 5.6 3.8 2.4 2.4 3.7 5.5c0.9 2.2 1.4 4.5 1.4 6.9zm-5.1 0c0-6.9-5.5-12.5-12.4-12.5-6.8 0-12.4 5.6-12.4 12.5 0 6.8 5.6 12.4 12.4 12.4 6.9 0 12.4-5.6 12.4-12.4z"/>
				<path id="Layer" class="s4" d="m168.2 1.8v5h-12.2v29.9h-5.1v-29.9h-12.2v-5z"/>
				<path id="Layer" class="s5" d="m176.5 6.8v9.9h16.6v5.1h-16.6v9.9h24.3v5h-29.4v-34.9h29.4v5z"/>
				<path id="Layer" fill-rule="evenodd" class="s6" d="m223 36.7h-1.7v-34.9h17c3.3 0 6.5 1.3 8.8 3.6 2.4 2.4 3.7 5.5 3.7 8.9 0 3.3-1.3 6.5-3.7 8.8-2.3 2.4-5.5 3.7-8.8 3.7h-15.3zm15.3-33.2h-15.3v21.6h15.3c5.9 0 10.8-4.9 10.8-10.8 0-6-4.9-10.8-10.8-10.8z"/>
				<path id="Layer" fill-rule="evenodd" class="s7" d="m274.3 33.3l1.3 3.4h-1.8l-2.7-6.7h-20.5l-2.7 6.7h-1.9 0.1l13.8-34.9h1.9l7 17.9 4.1 10zm-3.9-5l-3.3-8.2-6.3-16-9.6 24.2zm-0.3-15l-0.9-2.2q0.5-1 1.1-1.8 0.9-1.3 2-2.4c1.7-1.7 3.6-2.9 5.8-3.8q3.1-1.3 6.6-1.3 3.4 0 6.5 1.3c2.2 0.9 4.2 2.1 5.8 3.8l-1.2 1.2c-6.1-6.1-16.1-6.1-22.3 0q-1.4 1.5-2.4 3.1-0.6 1-1 2.1zm27 18.4h-0.1c-3.3 3.3-7.7 5.1-12.3 5.1q-1.8 0-3.6-0.4-1.1-0.2-2.1-0.5l-0.9-2.2h0.1q1 0.5 2.1 0.8c5.5 1.6 11.5 0 15.5-4z"/>
				<path id="Layer" class="s8" d="m301 36.7h-2.2v-34.9h1.7v32.7l25.6-32.7h2.2l-13.7 17.4 13.7 17.5h-2.2l-12.6-16.1z"/>
				<path id="Layer" fill-rule="evenodd" class="s9" d="m353.6 33.3l1.3 3.4h-1.8l-2.7-6.7h-20.5l-2.7 6.7h-1.8l13.8-34.9h1.9l7.1 17.9 4 10zm-3.9-5l-3.3-8.2-6.3-15.9-9.5 24.1zm-0.4-15l-0.9-2.2q0.5-0.9 1.1-1.8 0.9-1.3 2-2.4c1.7-1.7 3.6-2.9 5.8-3.8q3.1-1.3 6.6-1.3 3.4 0 6.5 1.3c2.2 0.9 4.2 2.1 5.8 3.8l-1.2 1.2c-3-2.9-6.9-4.6-11.1-4.6-4.2 0-8.2 1.7-11.2 4.6q-1.4 1.5-2.4 3.1-0.6 1-1 2.1zm25.2 5.2h1.8v18.3h-1.8v-3.6c-3 2.4-6.8 3.6-10.6 3.6q-1.8 0-3.6-0.4-1.1-0.2-2.1-0.5l-0.9-2.2h0.1q1 0.5 2.1 0.8c5.3 1.5 11 0.1 15-3.6 0 0 0-12.4 0-12.4z"/>
				<path id="Layer" class="s10" d="m406.8 36.7h-29.5v-34.9h29.5v1.7h-27.7v14.9h19.9v1.7h-19.9v14.9h27.7z"/>
				<path id="Layer" class="s11" d="m1.2 84.8v-0.1h2.5v0.1c0 6 4.9 10.9 11 10.9h16.3c6 0 10.9-4.9 10.9-10.9 0-6.1-4.9-11-10.9-11h-16.3c-3.6 0-7-1.4-9.6-3.9-2.5-2.6-3.9-6-3.9-9.6 0-7.4 6-13.4 13.5-13.4h16.3c7.4 0 13.5 6 13.5 13.4v0.1h-2.6v-0.1c0-6-4.9-10.9-10.9-10.9h-16.3c-6.1 0-11 4.9-11 10.9 0 6.1 4.9 11 11 11h16.3c3.6 0 7 1.4 9.5 3.9 2.6 2.6 4 6 4 9.6 0 7.4-6.1 13.4-13.5 13.4h-16.3c-7.5 0-13.5-6-13.5-13.4z"/>
				<path id="Layer" class="s12" d="m93.2 98.2h-43.3v-51.3h43.3v2.5h-40.8v21.9h29.3v2.5h-29.3v21.9h40.8z"/>
				<path id="Layer" class="s13" d="m97.9 46.9h-0.1 0.1 3.1 0.1l37.5 48.1v-48.1h2.5v51.3h0.1-0.1-3.2l-37.5-48.1v48.1h-2.5z"/>
				<path id="Layer" fill-rule="evenodd" class="s14" d="m163.5 98.2h-17.6v-51.3h17.6c3.4 0 6.8 0.7 10 2 3 1.3 5.8 3.1 8.1 5.5 2.4 2.4 4.2 5.1 5.5 8.2 1.4 3.1 2 6.5 2 10 0 3.4-0.6 6.8-2 10-1.3 3-3.1 5.8-5.5 8.1-2.3 2.4-5.1 4.2-8.1 5.5-3.2 1.4-6.6 2-10 2zm0-48.8h-15.1v46.3h15.1c12.7 0 23.1-10.4 23.1-23.1 0-12.8-10.4-23.2-23.1-23.2z"/>
				<path id="Layer" fill-rule="evenodd" class="s15" d="m196.4 95.7h40.7v2.5h-43.3v-51.3h43.3v2.5h-40.7zm89.1 2.5h-3.2l-11.6-14.9q-1.8 0.4-3.6 0.4h-22.4v14.5h-2.5v-14.5h-40.8v-2.6h40.8v-34.2h24.9c4.9 0 9.5 1.9 13 5.4 3.5 3.4 5.4 8.1 5.4 13 0 3.8-1.2 7.5-3.4 10.7-2.2 3-5.3 5.3-8.8 6.6zm-83.4-24.4v-2.6h14.8v2.6zm69.6 6.6c6.7-2 11.3-8.2 11.3-15.2 0-8.7-7.1-15.8-15.8-15.8h-22.4v31.7h22.4q0.9 0 1.8-0.1 1.4-0.2 2.7-0.6z"/>
				<path id="Layer" class="s16" d="m335.8 98.2l-20.3-51.3h2.7l19 47.9 19-47.9h2.7l-20.3 51.3h-2.7z"/>
				<path id="Layer" class="s17" d="m393.3 98.2h-29.8v-13.4c0-3.6 1.4-7 4-9.6 2.5-2.5 5.9-3.9 9.5-3.9h16.3c6.1 0 11-4.9 11-11 0-6-4.9-10.9-11-10.9h-16.3c-6 0-10.9 4.9-10.9 10.9v0.1h-2.6v-0.1c0-7.4 6.1-13.4 13.5-13.4h16.3c7.5 0 13.5 6 13.5 13.4 0 3.6-1.4 7-3.9 9.6-2.6 2.5-6 3.9-9.6 3.9h-16.3c-6 0-10.9 4.9-10.9 11v10.9h27.2c6.1 0 11-4.9 11-10.9v-0.1h2.5v0.1c0 7.4-6 13.4-13.5 13.4z"/>
			</g>
		</g>
	</g>
</svg>